<svg width="50" height="50" viewBox="0 0 50 50" fill="none" xmlns="http://www.w3.org/2000/svg">
<g id="arrow-left 1">
<path id="Vector" fill-rule="evenodd" clip-rule="evenodd" d="M46.875 25C46.875 24.5856 46.7104 24.1882 46.4173 23.8952C46.1243 23.6021 45.7269 23.4375 45.3125 23.4375H8.45936L18.2937 13.6063C18.439 13.461 18.5542 13.2885 18.6329 13.0987C18.7115 12.9089 18.752 12.7055 18.752 12.5C18.752 12.2946 18.7115 12.0911 18.6329 11.9013C18.5542 11.7115 18.439 11.539 18.2937 11.3938C18.1485 11.2485 17.976 11.1333 17.7862 11.0546C17.5964 10.976 17.3929 10.9355 17.1875 10.9355C16.982 10.9355 16.7786 10.976 16.5888 11.0546C16.399 11.1333 16.2265 11.2485 16.0812 11.3938L3.58124 23.8938C3.43573 24.0389 3.32028 24.2113 3.24151 24.4012C3.16274 24.591 3.12219 24.7945 3.12219 25C3.12219 25.2055 3.16274 25.409 3.24151 25.5989C3.32028 25.7887 3.43573 25.9611 3.58124 26.1063L16.0812 38.6063C16.2265 38.7515 16.399 38.8668 16.5888 38.9454C16.7786 39.024 16.982 39.0645 17.1875 39.0645C17.3929 39.0645 17.5964 39.024 17.7862 38.9454C17.976 38.8668 18.1485 38.7515 18.2937 38.6063C18.439 38.461 18.5542 38.2885 18.6329 38.0987C18.7115 37.9089 18.752 37.7055 18.752 37.5C18.752 37.2946 18.7115 37.0911 18.6329 36.9013C18.5542 36.7115 18.439 36.539 18.2937 36.3938L8.45936 26.5625H45.3125C45.7269 26.5625 46.1243 26.3979 46.4173 26.1049C46.7104 25.8118 46.875 25.4144 46.875 25Z" fill="#3B96DA"/>
</g>
</svg>
