<svg width="18" height="12" viewBox="0 0 18 12" fill="none" xmlns="http://www.w3.org/2000/svg">
<path fill-rule="evenodd" clip-rule="evenodd" d="M17.7499 6.00006C17.7499 5.8343 17.684 5.67533 17.5668 5.55812C17.4496 5.44091 17.2907 5.37506 17.1249 5.37506H2.38365L6.3174 1.44256C6.37551 1.38445 6.4216 1.31546 6.45305 1.23954C6.4845 1.16361 6.50069 1.08224 6.50069 1.00006C6.50069 0.917877 6.4845 0.836502 6.45305 0.760578C6.4216 0.684653 6.37551 0.615667 6.3174 0.557557C6.25929 0.499447 6.1903 0.453352 6.11438 0.421903C6.03845 0.390454 5.95708 0.374268 5.8749 0.374268C5.79272 0.374268 5.71134 0.390454 5.63542 0.421903C5.55949 0.453352 5.49051 0.499447 5.4324 0.557557L0.432397 5.55756C0.374192 5.61561 0.328014 5.68458 0.296506 5.76051C0.264998 5.83645 0.248779 5.91785 0.248779 6.00006C0.248779 6.08227 0.264998 6.16367 0.296506 6.2396C0.328014 6.31553 0.374192 6.3845 0.432397 6.44256L5.4324 11.4426C5.49051 11.5007 5.55949 11.5468 5.63542 11.5782C5.71134 11.6097 5.79272 11.6258 5.8749 11.6258C5.95708 11.6258 6.03845 11.6097 6.11438 11.5782C6.1903 11.5468 6.25929 11.5007 6.3174 11.4426C6.37551 11.3844 6.4216 11.3155 6.45305 11.2395C6.4845 11.1636 6.50069 11.0822 6.50069 11.0001C6.50069 10.9179 6.4845 10.8365 6.45305 10.7606C6.4216 10.6847 6.37551 10.6157 6.3174 10.5576L2.38365 6.62506H17.1249C17.2907 6.62506 17.4496 6.55921 17.5668 6.442C17.684 6.32479 17.7499 6.16582 17.7499 6.00006Z" fill="#0066FF"/>
</svg>
